<svg xmlns="http://www.w3.org/2000/svg" viewBox="0 0 1200 800" role="img" aria-label="SFA Hemodynamics Cover">
  <defs>
    <linearGradient id="g1" x1="0" x2="1">
      <stop offset="0%" stop-color="#3b82f6"/>
      <stop offset="50%" stop-color="#22d3ee"/>
      <stop offset="100%" stop-color="#f59e0b"/>
    </linearGradient>
  </defs>
  <rect width="1200" height="800" fill="#0b0f1a"/>
  <!-- vessel shape -->
  <g transform="translate(80,80)">
    <path d="M0,260 C200,100 400,200 600,160 C800,120 950,200 1040,260 L1040,340 C950,400 800,480 600,440 C400,400 200,500 0,340Z" fill="#1f2937"/>
    <path d="M0,260 C200,100 400,200 600,160 C800,120 950,200 1040,260" stroke="url(#g1)" stroke-width="34" fill="none"/>
  </g>
  <!-- heatmap blocks -->
  <g transform="translate(120,480)">
    <rect width="960" height="180" rx="12" fill="#111827"/>
    <g opacity="0.85">
      <rect x="20" y="20" width="140" height="140" fill="#38bdf8"/>
      <rect x="180" y="20" width="140" height="140" fill="#22d3ee"/>
      <rect x="340" y="20" width="140" height="140" fill="#10b981"/>
      <rect x="500" y="20" width="140" height="140" fill="#f59e0b"/>
      <rect x="660" y="20" width="140" height="140" fill="#ef4444"/>
      <rect x="820" y="20" width="120" height="140" fill="#a855f7"/>
    </g>
  </g>
  <!-- caption -->
  <text x="600" y="760" text-anchor="middle" fill="#e5e7eb" font-family="Inter, system-ui, -apple-system, Segoe UI, Roboto" font-size="28">Patient-specific Hemodynamics · SFA · CFD</text>
</svg>






