<svg xmlns="http://www.w3.org/2000/svg" viewBox="0 0 480 160" role="img" aria-label="UCL">
  <!-- black bar background -->
  <rect x="0" y="48" width="480" height="64" fill="#000000"/>

  <!-- left portico (simplified) -->
  <g transform="translate(24,40)" fill="#ffffff">
    <!-- stylized dome -->
    <path d="M24 12c10 0 18 6 22 14h-44c4-8 12-14 22-14z"/>
    <!-- columns -->
    <rect x="4" y="28" width="6" height="40"/>
    <rect x="18" y="28" width="6" height="40"/>
    <rect x="32" y="28" width="6" height="40"/>
    <rect x="46" y="28" width="6" height="40"/>
    <!-- base -->
    <rect x="0" y="68" width="56" height="6"/>
  </g>

  <!-- UCL letters (bold) -->
  <g fill="#ffffff" transform="translate(120,48)">
    <!-- U -->
    <path d="M0 16h16v40c0 10 6 16 16 16s16-6 16-16V16h16v40c0 20-16 36-32 36S0 76 0 56V16z"/>
    <!-- C -->
    <path d="M96 12c26 0 44 14 52 34l-17 6c-5-12-16-22-35-22-22 0-36 16-36 36s14 36 36 36c19 0 30-10 35-22l17 6c-8 20-26 34-52 34-34 0-58-24-58-54s24-54 58-54z"/>
    <!-- L with notch at bar end -->
    <path d="M176 16h16v64h64v16h-80V16z"/>
  </g>

  <!-- right top notch (logo motif) -->
  <rect x="448" y="48" width="16" height="16" fill="#000000"/>
</svg>

